<?xml version="1.0" encoding="iso-8859-1"?>
<!-- Generator: Adobe Illustrator 16.0.0, SVG Export Plug-In . SVG Version: 6.00 Build 0)  -->
<!DOCTYPE svg PUBLIC "-//W3C//DTD SVG 1.1//EN" "http://www.w3.org/Graphics/SVG/1.1/DTD/svg11.dtd">
<svg version="1.1" id="Capa_1" xmlns="http://www.w3.org/2000/svg" xmlns:xlink="http://www.w3.org/1999/xlink" x="0px" y="0px"
	 width="47.263px" height="47.263px" viewBox="0 0 47.263 47.263" style="enable-background:new 0 0 47.263 47.263;"
	 xml:space="preserve">
<g>
	<path d="M5.759,21.527c0.426,0.738,1.215,1.194,2.068,1.194h10.359c0.854,0,1.643-0.456,2.067-1.194l5.18-8.971
		c0.427-0.74,0.427-1.65,0-2.39l-5.18-8.972C19.826,0.456,19.038,0,18.187,0H7.827C6.973,0,6.183,0.456,5.759,1.194l-5.18,8.972
		c-0.426,0.739-0.426,1.649,0,2.39L5.759,21.527z M9.207,4.779h7.602l3.799,6.582l-3.799,6.582H9.207l-3.799-6.582L9.207,4.779z
		 M20.255,25.734c-0.426-0.736-1.215-1.192-2.068-1.192H7.827c-0.854,0-1.643,0.456-2.067,1.192l-5.18,8.973
		c-0.427,0.738-0.427,1.648,0,2.39l5.18,8.974c0.427,0.736,1.215,1.192,2.067,1.192h10.359c0.854,0,1.644-0.456,2.068-1.192
		l5.18-8.974c0.426-0.737,0.426-1.647,0-2.39L20.255,25.734z M16.808,42.482H9.207L5.407,35.9l3.799-6.582h7.602l3.799,6.582
		L16.808,42.482z M46.684,24.824l-5.178,8.973c-0.429,0.738-1.218,1.193-2.07,1.193H29.077c-0.854,0-1.643-0.455-2.068-1.193
		l-5.18-8.973c-0.428-0.738-0.428-1.648,0-2.389l5.18-8.971c0.429-0.738,1.215-1.193,2.068-1.193h10.357
		c0.854,0,1.643,0.455,2.07,1.193l5.178,8.971C47.111,23.176,47.111,24.086,46.684,24.824z"/>
</g>
<g>
</g>
<g>
</g>
<g>
</g>
<g>
</g>
<g>
</g>
<g>
</g>
<g>
</g>
<g>
</g>
<g>
</g>
<g>
</g>
<g>
</g>
<g>
</g>
<g>
</g>
<g>
</g>
<g>
</g>
</svg>
