<svg width="28" height="16" viewBox="0 0 28 16" fill="none" xmlns="http://www.w3.org/2000/svg">
<path d="M27.5128 4.11447C26.7374 3.70856 24.6219 4.39181 24.0708 4.74641C23.8903 4.42536 23.6856 4.07373 23.4636 3.71369C22.3287 1.8729 21.3662 0.80615 20.5211 0.452643C20.4872 0.438438 20.4521 0.427074 20.4163 0.418611C20.3438 0.401504 18.5874 0 14 0C9.41263 0 7.65616 0.401564 7.58362 0.418611C7.54778 0.427074 7.51278 0.438438 7.47887 0.452643C6.63379 0.80621 5.67125 1.8729 4.53632 3.71369C4.31435 4.07373 4.10955 4.42536 3.92917 4.74641C3.37805 4.39181 1.26245 3.70856 0.487131 4.11447C-0.312914 4.53332 0.00764816 5.85166 0.487131 6.20922C0.786475 6.4324 1.6078 6.50034 2.47271 6.44285C2.27703 6.70345 2.12283 6.99675 2.01843 7.31266C3.38241 7.56836 6.58869 7.55729 6.10951 8.59684C5.40842 10.1174 3.25051 9.90695 1.92032 9.23089L2.16871 13.5182C2.16871 14.5201 2.9809 15.3322 3.98279 15.3322H5.07371C6.0756 15.3322 6.88773 14.5201 6.88773 13.5182L6.85213 13.1339H21.1479L21.1123 13.5182C21.1123 14.5201 21.9244 15.3322 22.9263 15.3322H24.0172C25.0191 15.3322 25.8313 14.5201 25.8313 13.5182L26.0796 9.23089C24.7495 9.90695 22.5916 10.1175 21.8905 8.59684C21.4113 7.55729 24.6175 7.56836 25.9816 7.31266C25.8772 6.99669 25.723 6.70339 25.5273 6.44285C26.3922 6.5004 27.2135 6.43246 27.5129 6.20922C27.9922 5.85166 28.3129 4.53332 27.5128 4.11447ZM17.4906 11.119H10.5092L9.78379 8.47407H18.216L17.4906 11.119ZM5.1908 5.22595C6.05922 3.70662 7.16894 2.08411 7.94445 1.71017C8.2696 1.64627 10.0436 1.33834 13.9999 1.33834C17.9608 1.33834 19.7344 1.647 20.0553 1.71011C20.8298 2.0835 21.9398 3.70626 22.8087 5.22595H5.1908Z" fill="white"/>
</svg>
