<svg width="511" height="512" viewBox="0 0 511 512" fill="none" xmlns="http://www.w3.org/2000/svg">
<path d="M347.34 155.148C341.82 155.148 337.34 159.617 337.34 165.145C337.34 170.668 341.82 175.145 347.34 175.145C352.871 175.145 357.34 170.668 357.34 165.145C357.34 159.617 352.871 155.148 347.34 155.148Z" fill="white"/>
<path d="M165.645 336.84C160.113 336.84 155.645 341.32 155.645 346.84C155.645 352.371 160.113 356.84 165.645 356.84C171.164 356.84 175.645 352.371 175.645 346.84C175.645 341.32 171.164 336.84 165.645 336.84Z" fill="white"/>
<path d="M500.059 61.5195C496.684 60.7343 493.137 61.7539 490.699 64.2148L449.242 106H429.367L407.488 83.332V63.1797L448.352 21.707C450.77 19.2539 451.754 15.7265 450.953 12.3711C450.156 9.0195 447.688 6.31638 444.422 5.21482C434.156 1.75388 423.414 -2.78454e-05 412.488 -2.78454e-05C379.918 -2.78454e-05 350.328 15.1875 331.305 41.6679C313.5 66.457 308.012 96.8359 315.875 125.91L242.215 199.57L119.496 76.5703V52.4297C119.496 48.9179 117.652 45.6601 114.641 43.8554L43.9336 1.42575C39.9961 -0.937528 34.9609 -0.316434 31.7188 2.92966L3.4375 31.207C0.195312 34.4531 -0.425781 39.4883 1.93359 43.4258L44.3555 114.133C46.1602 117.145 49.4141 118.984 52.9258 118.988L77.0586 118.996L199.789 241.996L126.41 315.375C97.3359 307.516 66.9414 313.012 42.1406 330.828C15.6758 349.84 0.5 379.422 0.5 411.992C0.5 422.914 2.25391 433.66 5.71484 443.922C6.82031 447.207 9.55078 449.687 12.9258 450.469C16.3047 451.254 19.8477 450.234 22.2891 447.773L63.7422 405.992H83.7266L106.496 428.762V448.746L64.7148 490.199C62.2539 492.641 61.2344 496.184 62.0195 499.562C62.8008 502.937 65.2813 505.668 68.5664 506.773C78.8281 510.234 89.5742 511.988 100.496 511.988C133.066 511.988 162.645 496.809 181.66 470.344C199.477 445.543 204.973 415.152 197.113 386.078L256.047 327.145L269.547 341.809L263.352 348C259.445 351.906 259.445 358.238 263.352 362.145C267.258 366.047 273.586 366.047 277.496 362.145L283.105 356.535L409.77 494.121C409.863 494.223 409.961 494.32 410.059 494.418C433.496 517.855 471.469 517.863 494.918 494.414C518.301 471.02 518.301 432.953 494.918 409.559C494.816 409.457 494.711 409.359 494.605 409.262L356.805 282.84L362.352 277.293C366.258 273.391 366.258 267.059 362.352 263.152C358.445 259.246 352.117 259.246 348.207 263.152L342.055 269.309L327.363 255.824L386.582 196.605C395 198.855 403.688 199.996 412.488 199.996C467.629 199.996 512.484 155.137 512.484 100C512.484 89.0742 510.73 78.332 507.27 68.0664C506.164 64.7812 503.434 62.3008 500.059 61.5195V61.5195ZM88.2852 101.934C86.4102 100.055 83.8672 99.0976 81.2109 99.0976L58.5938 99.0898L23.1016 39.832L40.3398 22.5937L99.4961 58.0937V80.7109C99.4961 83.3593 100.547 85.8984 102.418 87.7734L228.074 213.715L213.93 227.855L88.2852 101.934ZM342.648 296.996L480.918 423.844C496.363 439.453 496.316 464.727 480.773 480.277C465.195 495.855 439.977 495.902 424.336 480.414L297.258 342.379L342.648 296.996ZM327.898 283.461L283.699 327.652L270.199 312.988L313.207 269.977L327.898 283.461ZM412.488 179.996C403.742 179.996 395.141 178.594 386.93 175.828C383.332 174.621 379.355 175.551 376.668 178.234C326.535 228.367 218.512 336.387 178.734 376.168C176.047 378.855 175.113 382.832 176.328 386.434C184.641 411.117 180.664 437.445 165.414 458.676C150.207 479.844 126.543 491.988 100.496 491.988C97.5703 491.988 94.6602 491.828 91.7773 491.52L123.539 460.004C125.43 458.129 126.496 455.574 126.496 452.906V424.617C126.496 421.965 125.441 419.422 123.566 417.547L94.9375 388.918C93.0625 387.043 90.5195 385.988 87.8672 385.988H59.5781C56.9102 385.988 54.3555 387.055 52.4766 388.945L20.9648 420.707C20.6523 417.824 20.4961 414.914 20.4961 411.988C20.4961 385.937 32.6367 362.277 53.8086 347.07C75.0352 331.82 101.367 327.84 126.055 336.156C129.652 337.371 133.629 336.437 136.316 333.75C136.867 333.203 334.109 135.957 334.25 135.816C336.938 133.129 337.867 129.156 336.656 125.555C328.34 100.871 332.309 74.5508 347.547 53.3359C362.766 32.1484 386.434 20 412.484 20C415.5 20 418.496 20.1679 421.465 20.4961L390.363 52.0625C388.52 53.9336 387.488 56.4531 387.488 59.0781V87.3672C387.488 89.9609 388.492 92.4492 390.293 94.3125L417.922 122.941C419.805 124.895 422.402 125.996 425.117 125.996H453.406C456.07 125.996 458.625 124.934 460.504 123.039L492.016 91.2812C492.328 94.164 492.484 97.0742 492.484 100C492.484 144.109 456.598 179.996 412.488 179.996V179.996Z" fill="white"/>
<path d="M311.988 186.355L186.852 311.492C182.949 315.395 182.949 321.727 186.852 325.633C190.758 329.539 197.09 329.539 200.996 325.633L326.133 200.496C330.039 196.594 330.039 190.262 326.133 186.355C322.227 182.449 315.895 182.449 311.988 186.355V186.355Z" fill="white"/>
<path d="M438.355 452C442.262 455.895 448.594 455.895 452.5 451.977C456.398 448.066 456.387 441.734 452.477 437.836L362.34 347.988C358.43 344.09 352.094 344.102 348.199 348.012C344.297 351.926 344.309 358.254 348.219 362.152L438.355 452Z" fill="white"/>
</svg>
