<svg width="47" height="48" viewBox="0 0 47 48" fill="none" xmlns="http://www.w3.org/2000/svg">
<path d="M5.4995 21.527C5.9255 22.265 6.7145 22.721 7.5675 22.721H17.9265C18.7805 22.721 19.5695 22.265 19.9935 21.527L25.1735 12.556C25.6005 11.816 25.6005 10.906 25.1735 10.166L19.9935 1.194C19.5665 0.456 18.7785 0 17.9275 0H7.5675C6.7135 0 5.9235 0.456 5.4995 1.194L0.3195 10.166C-0.1065 10.905 -0.1065 11.815 0.3195 12.556L5.4995 21.527ZM8.9475 4.779H16.5495L20.3485 11.361L16.5495 17.943H8.9475L5.1485 11.361L8.9475 4.779ZM19.9955 25.734C19.5695 24.998 18.7805 24.542 17.9275 24.542H7.5675C6.7135 24.542 5.9245 24.998 5.5005 25.734L0.3205 34.707C-0.1065 35.445 -0.1065 36.355 0.3205 37.097L5.5005 46.071C5.9275 46.807 6.7155 47.263 7.5675 47.263H17.9265C18.7805 47.263 19.5705 46.807 19.9945 46.071L25.1745 37.097C25.6005 36.36 25.6005 35.45 25.1745 34.707L19.9955 25.734ZM16.5485 42.482H8.9475L5.1475 35.9L8.9465 29.318H16.5485L20.3475 35.9L16.5485 42.482ZM46.4245 24.824L41.2465 33.797C40.8175 34.535 40.0285 34.99 39.1765 34.99H28.8175C27.9635 34.99 27.1745 34.535 26.7495 33.797L21.5695 24.824C21.1415 24.086 21.1415 23.176 21.5695 22.435L26.7495 13.464C27.1785 12.726 27.9645 12.271 28.8175 12.271H39.1745C40.0285 12.271 40.8175 12.726 41.2445 13.464L46.4225 22.435C46.8515 23.176 46.8515 24.086 46.4245 24.824Z" fill="white"/>
</svg>
