<svg width="512" height="512" viewBox="0 0 512 512" fill="none" xmlns="http://www.w3.org/2000/svg">
<path d="M179.2 315.733C179.2 358.149 213.584 392.533 256 392.533C298.415 392.533 332.8 358.149 332.8 315.733C332.8 273.318 298.415 238.933 256 238.933C213.606 238.985 179.252 273.339 179.2 315.733ZM315.733 315.733C315.733 348.723 288.99 375.467 256 375.467C223.01 375.467 196.267 348.723 196.267 315.733C196.267 282.744 223.01 256 256 256C288.974 256.038 315.696 282.759 315.733 315.733Z" fill="white"/>
<path d="M392.533 145.067V163.703C380.787 167.841 373.737 179.847 375.847 192.121C377.958 204.395 388.613 213.357 401.067 213.333H486.4C498.854 213.357 509.509 204.395 511.619 192.121C513.73 179.847 506.68 167.841 494.933 163.703V145.067C494.875 129.55 484.358 116.024 469.333 112.145V85.3333C478.759 85.3333 486.4 77.6923 486.4 68.2667V17.0667C486.4 7.64101 478.759 0 469.333 0H418.133C412.063 0.018304 406.463 3.27039 403.439 8.53333H330.428C327.403 3.27039 321.803 0.018304 315.733 0H196.267C190.197 0.018304 184.597 3.27039 181.572 8.53333H82.9611C79.9368 3.27039 74.3367 0.018304 68.2667 0H17.0667C7.64101 0 0 7.64101 0 17.0667V68.2667C0 77.6923 7.64101 85.3333 17.0667 85.3333V145.067C17.0949 173.332 40.0014 196.238 68.2667 196.267H86.9035C91.0409 208.013 103.047 215.063 115.321 212.953C127.595 210.842 136.557 200.187 136.533 187.733V136.533C136.557 124.079 127.595 113.424 115.321 111.314C103.047 109.204 91.0409 116.253 86.9035 128H76.8C72.0872 128 68.2667 124.18 68.2667 119.467V85.3333C74.3367 85.315 79.9368 82.0629 82.9611 76.8H153.6V128C153.6 142.138 165.062 153.6 179.2 153.6H221.867V162.133C221.885 168.203 225.137 173.803 230.4 176.828V204.8H162.133C147.995 204.8 136.533 216.262 136.533 230.4V412.22L11.0933 459.264C9.06137 460.076 7.2087 461.279 5.64053 462.805C5.10873 463.246 4.633 463.751 4.224 464.307C1.55836 467.335 0.0605338 471.214 0 475.247V494.933C0 504.359 7.64101 512 17.0667 512H494.933C504.359 512 512 504.359 512 494.933V475.247C511.944 471.208 510.445 467.322 507.776 464.29C507.379 463.742 506.914 463.246 506.394 462.814C504.823 461.285 502.967 460.079 500.932 459.264L375.467 412.22V230.4C375.467 216.262 364.005 204.8 349.867 204.8H281.6V176.828C286.863 173.803 290.115 168.203 290.133 162.133V153.6H332.8C346.939 153.6 358.4 142.138 358.4 128V76.8H403.439C406.463 82.0629 412.063 85.315 418.133 85.3333V112.145C403.109 116.024 392.592 129.55 392.533 145.067V145.067ZM486.4 196.267H401.067C396.354 196.267 392.533 192.446 392.533 187.733C392.533 183.021 396.354 179.2 401.067 179.2H486.4C491.113 179.2 494.933 183.021 494.933 187.733C494.933 192.446 491.113 196.267 486.4 196.267ZM477.867 145.067V162.133H409.6V145.067C409.6 135.641 417.241 128 426.667 128H460.8C470.226 128 477.867 135.641 477.867 145.067ZM469.333 17.0667V68.2667H418.133V17.0667H469.333ZM332.8 59.7333V25.6H401.067V59.7333H332.8ZM315.733 17.0667V68.2667H196.267V17.0667H315.733ZM110.933 128C115.646 128 119.467 131.821 119.467 136.533V187.733C119.467 192.446 115.646 196.267 110.933 196.267C106.221 196.267 102.4 192.446 102.4 187.733V136.533C102.4 131.821 106.221 128 110.933 128ZM76.8 145.067H85.3333V179.2H68.2667C49.4153 179.2 34.1333 163.918 34.1333 145.067V85.3333H51.2V119.467C51.2 133.605 62.6615 145.067 76.8 145.067ZM59.7333 68.2667H17.0667V17.0667H68.2667V68.2667H59.7333ZM85.3333 25.6H179.2V59.7333H85.3333V25.6ZM273.067 145.067V162.133H238.933V128H273.067V145.067ZM456.414 460.8H55.5947L146.611 426.667H365.389L456.414 460.8ZM17.0667 494.933V477.867H494.933V494.933H17.0667ZM358.4 230.4V409.6H153.6V230.4C153.6 225.687 157.421 221.867 162.133 221.867H349.867C354.58 221.867 358.4 225.687 358.4 230.4ZM247.467 204.8V179.2H264.533V204.8H247.467ZM341.333 128C341.333 132.713 337.513 136.533 332.8 136.533H290.133V128C290.133 118.574 282.492 110.933 273.067 110.933H238.933C229.508 110.933 221.867 118.574 221.867 128V136.533H179.2C174.487 136.533 170.667 132.713 170.667 128V76.8H181.572C184.597 82.0629 190.197 85.315 196.267 85.3333H315.733C321.803 85.315 327.403 82.0629 330.428 76.8H341.333V128ZM452.267 85.3333V110.933H435.2V85.3333H452.267Z" fill="white"/>
<path d="M256 290.133C260.713 290.133 264.533 286.313 264.533 281.6C264.533 276.887 260.713 273.067 256 273.067C251.287 273.067 247.467 276.887 247.467 281.6C247.467 286.313 251.287 290.133 256 290.133Z" fill="white"/>
<path d="M231.654 307.823C232.721 304.54 231.705 300.939 229.081 298.697C226.457 296.455 222.74 296.015 219.665 297.582C216.589 299.149 214.761 302.414 215.032 305.855C215.303 309.296 217.62 312.235 220.902 313.301C225.384 314.757 230.198 312.305 231.654 307.823V307.823Z" fill="white"/>
<path d="M229.035 338.33C226.274 342.143 227.123 347.472 230.933 350.238C234.742 353.005 240.072 352.163 242.844 348.358C245.616 344.553 244.783 339.221 240.981 336.444C239.149 335.105 236.858 334.551 234.616 334.905C232.374 335.259 230.366 336.491 229.035 338.33Z" fill="white"/>
<path d="M281.079 350.251C284.881 347.473 285.714 342.142 282.942 338.336C280.17 334.531 274.84 333.69 271.031 336.456C267.221 339.222 266.372 344.551 269.133 348.365C270.464 350.203 272.472 351.436 274.714 351.79C276.956 352.144 279.247 351.59 281.079 350.251V350.251Z" fill="white"/>
<path d="M291.098 313.301C294.38 312.235 296.697 309.296 296.968 305.855C297.239 302.414 295.41 299.149 292.335 297.582C289.26 296.015 285.543 296.455 282.919 298.697C280.294 300.939 279.279 304.54 280.346 307.823C281.802 312.305 286.616 314.757 291.098 313.301V313.301Z" fill="white"/>
</svg>
