<svg width="291" height="291" viewBox="0 0 291 291" fill="none" xmlns="http://www.w3.org/2000/svg">
<path d="M5.11698 0.059993C0.628984 0.062993 -1.58302 5.51799 1.63498 8.64599L52.979 59.99L35.3 77.669C33.478 79.492 33.479 82.447 35.303 84.269C35.901 84.866 36.649 85.29 37.468 85.495L94.036 99.638C96.537 100.263 99.071 98.743 99.696 96.243C99.882 95.499 99.882 94.722 99.696 93.978L85.554 37.409C85.045 35.375 83.242 33.929 81.146 33.876C79.868 33.844 78.632 34.337 77.728 35.241L60.048 52.919L8.70498 1.57499C7.76298 0.605993 6.46798 0.058993 5.11698 0.059993ZM285.072 0.061993C283.773 0.100993 282.54 0.643993 281.634 1.57599L230.29 52.92L212.61 35.242C211.718 34.351 210.504 33.858 209.243 33.877C207.128 33.908 205.298 35.358 204.784 37.41L190.641 93.978C190.016 96.479 191.536 99.013 194.036 99.638C194.78 99.824 195.557 99.824 196.301 99.638L252.869 85.495C255.369 84.869 256.889 82.334 256.263 79.834C256.058 79.015 255.634 78.266 255.037 77.669L237.359 59.989L288.703 8.64499C291.975 5.46599 289.631 -0.073007 285.072 0.061993ZM78.5 47.669L88.756 88.696L47.728 78.44L78.5 47.669ZM211.839 47.669L242.61 78.44L201.583 88.696L211.839 47.669ZM230.632 71.39C230.407 71.383 230.181 71.407 229.962 71.46L211.577 75.704C210.225 75.985 209.357 77.309 209.639 78.661C209.92 80.013 211.244 80.881 212.596 80.599C212.631 80.592 212.667 80.583 212.702 80.575L231.087 76.333C232.437 76.042 233.295 74.712 233.004 73.362C232.762 72.237 231.783 71.423 230.632 71.39ZM59.882 71.392C58.502 71.337 57.339 72.411 57.284 73.791C57.236 75.004 58.065 76.076 59.251 76.334L77.636 80.576C78.974 80.916 80.335 80.107 80.675 78.768C81.015 77.43 80.206 76.069 78.867 75.729C78.832 75.72 78.797 75.712 78.761 75.705L60.377 71.46C60.215 71.421 60.049 71.398 59.882 71.392ZM95.242 190.444C94.836 190.438 94.431 190.484 94.037 190.583L37.469 204.726C34.969 205.352 33.449 207.887 34.075 210.387C34.28 211.206 34.704 211.955 35.301 212.552L52.979 230.232L1.63398 281.575C-3.27402 286.288 3.99199 293.553 8.70399 288.645L60.048 237.301L77.728 254.979C79.551 256.801 82.506 256.8 84.328 254.976C84.925 254.378 85.349 253.63 85.554 252.811L99.697 196.241C100.321 193.74 98.8 191.207 96.299 190.582C95.953 190.496 95.598 190.45 95.242 190.444ZM195.379 190.448C192.804 190.333 190.623 192.327 190.508 194.902C190.488 195.352 190.533 195.803 190.642 196.241L204.785 252.811C205.411 255.311 207.946 256.831 210.446 256.205C211.265 256 212.014 255.576 212.611 254.979L230.291 237.301L281.635 288.645C286.348 293.553 293.613 286.287 288.705 281.575L237.361 230.231L255.039 212.551C256.861 210.728 256.86 207.773 255.036 205.951C254.438 205.354 253.69 204.93 252.871 204.725L196.301 190.582C195.998 190.507 195.69 190.462 195.379 190.448ZM88.755 201.524L78.5 242.552L47.728 211.78L88.755 201.524ZM201.584 201.524L242.611 211.78L211.84 242.551L201.584 201.524ZM78.306 209.573C78.08 209.567 77.855 209.591 77.636 209.645L59.251 213.887C57.899 214.168 57.031 215.492 57.313 216.844C57.595 218.196 58.918 219.064 60.27 218.782C60.305 218.775 60.341 218.766 60.376 218.758L78.761 214.516C80.111 214.225 80.969 212.895 80.678 211.545C80.436 210.42 79.457 209.606 78.306 209.573ZM212.209 209.575C210.829 209.52 209.666 210.594 209.611 211.974C209.563 213.187 210.392 214.259 211.578 214.517L229.963 218.759C231.301 219.099 232.662 218.29 233.002 216.951C233.342 215.613 232.533 214.252 231.194 213.912C231.159 213.903 231.124 213.895 231.088 213.888L212.703 209.646C212.541 209.606 212.375 209.582 212.209 209.575Z" fill="white"/>
</svg>
