<svg width="209" height="211" viewBox="0 0 209 211" fill="none" xmlns="http://www.w3.org/2000/svg">
<path d="M170.086 77.0997C169.34 76.1547 168.625 75.2457 167.948 74.3727C161.37 65.8957 158.029 56.4497 155.08 48.1177C152.981 42.1857 151.168 37.0637 148.526 33.3927C141.305 23.3647 114.138 19.3057 108.215 19.4867C101.81 19.6757 99.1533 25.1617 98.3423 29.5727C96.4103 30.1117 93.8823 31.2317 91.6553 33.5677C85.9683 39.5377 94.9983 53.6827 102.893 61.3627C109.208 67.5087 113.563 67.2097 117.4 66.9567C119.125 66.8407 120.76 66.7317 122.786 67.1927C127.524 68.2657 132.125 71.9747 134.142 73.7767C132.302 105.762 137.624 121.511 139.953 128.343C138.139 128.154 135.639 127.727 133.15 127.164C119.372 101.666 90.8233 104.945 82.1363 106.619C69.7503 87.5527 48.6283 81.2507 32.6693 81.7507C17.8263 82.2317 8.42228 81.2797 8.32828 81.2707C6.76528 81.0967 5.25928 82.0557 4.74428 83.5607C4.26328 84.9637 -6.85072 118.292 6.70228 150.868C19.8623 182.498 35.5073 208.403 35.6643 208.661C36.3063 209.719 37.4303 210.305 38.5863 210.305C39.1803 210.305 39.7863 210.15 40.3343 209.82C55.7813 200.589 62.3673 188.401 64.8303 182.358C95.5623 194.378 128.48 190.019 151.042 184.078C176.236 177.444 193.784 167.738 194.519 167.329C195.461 166.803 196.099 165.861 196.241 164.793C202.375 118.101 182.163 92.4337 170.086 77.0997ZM189.687 162.164C179.252 167.533 116.765 197.513 64.1503 174.7C63.2303 174.302 62.1843 174.335 61.2903 174.772C60.3923 175.211 59.7323 176.026 59.4833 176.994C59.4453 177.144 55.6453 191.298 39.7303 202.114C35.3053 194.477 23.3753 173.171 13.0053 148.248C2.50528 123.011 8.25128 96.4487 10.4623 88.2917C14.4033 88.5577 22.2413 88.9177 32.8863 88.5717C47.5053 88.0797 66.9123 94.0567 77.5633 112.201C78.3483 113.541 79.9423 114.181 81.4373 113.758C81.7663 113.664 114.41 104.772 127.783 131.642C128.228 132.536 129.042 133.19 130.01 133.432C143.634 136.84 145.606 134.639 146.556 133.577C148.29 131.643 147.553 129.486 146.44 126.218C144.218 119.702 139.014 104.443 141.052 72.6007C141.115 71.6327 140.762 70.6857 140.084 69.9927C139.78 69.6857 132.58 62.4117 124.294 60.5327C121.295 59.8537 118.882 60.0117 116.94 60.1457C113.61 60.3677 111.784 60.4907 107.651 56.4697C100.27 49.2877 96.1553 40.3107 96.7103 38.1587C98.8233 36.0357 101.441 35.9057 101.511 35.9027C103.363 35.8757 104.856 34.3787 104.877 32.5267C104.877 32.4657 105.037 26.4097 108.415 26.3097C108.565 26.3047 108.722 26.3027 108.888 26.3027C116.505 26.3027 138.429 31.0537 142.986 37.3827C145.056 40.2617 146.718 44.9587 148.642 50.3957C151.608 58.7787 155.3 69.2097 162.553 78.5587C163.243 79.4457 163.968 80.3677 164.722 81.3247C176.708 96.5477 194.742 119.444 189.687 162.164Z" fill="white"/>
<path d="M179.944 0.99975C178.611 -0.33325 176.45 -0.33325 175.118 0.99975L154.638 21.4797C153.305 22.8127 153.305 24.9737 154.638 26.3057C155.305 26.9727 156.177 27.3057 157.051 27.3057C157.925 27.3057 158.797 26.9717 159.464 26.3057L179.944 5.82575C181.277 4.49275 181.277 2.33275 179.944 0.99975Z" fill="white"/>
<path d="M204.595 29.4498C203.892 27.6988 201.912 26.8458 200.156 27.5488L166.023 41.2018C164.274 41.9028 163.422 43.8898 164.122 45.6388C164.656 46.9738 165.938 47.7858 167.293 47.7858C167.715 47.7858 168.143 47.7068 168.561 47.5398L202.694 33.8868C204.443 33.1858 205.295 31.1988 204.595 29.4498Z" fill="white"/>
<path d="M208.223 61.0158C207.991 59.1458 206.264 57.8058 204.414 58.0528L177.107 61.4658C175.238 61.6978 173.91 63.4048 174.144 65.2748C174.359 67.0018 175.83 68.2648 177.525 68.2648C177.667 68.2648 177.81 68.2558 177.953 68.2378L205.26 64.8248C207.129 64.5928 208.455 62.8868 208.223 61.0158Z" fill="white"/>
<path d="M136.052 155.206C135.054 153.607 132.944 153.124 131.348 154.121C106.56 169.607 70.9543 137.744 70.5983 137.421C69.2053 136.156 67.0453 136.259 65.7773 137.653C64.5113 139.047 64.6153 141.205 66.0073 142.473C66.4053 142.833 75.8943 151.397 88.9633 157.934C98.6123 162.759 107.692 165.177 115.927 165.177C122.941 165.177 129.343 163.423 134.965 159.91C136.566 158.909 137.05 156.805 136.052 155.206Z" fill="white"/>
<path d="M88.4093 121.323L79.6593 104.241C78.7993 102.562 76.7413 101.898 75.0653 102.758C73.3893 103.618 72.7253 105.675 73.5843 107.352L82.3343 124.434C82.9383 125.615 84.1333 126.293 85.3753 126.293C85.8993 126.293 86.4303 126.172 86.9283 125.918C88.6033 125.057 89.2673 123.001 88.4093 121.323Z" fill="white"/>
</svg>
